<svg data-v-423bf9ae="" xmlns="http://www.w3.org/2000/svg" viewBox="0 0 658 91" class="iconLeftSlogan"><!----><!----><!----><g data-v-423bf9ae="" id="d17f666a-a10c-4abf-91d8-38bcbf2d5f0f" fill="white" transform="matrix(4.687499580904879,0,0,4.687499580904879,167.79924868675678,-17.718745405786194)"><path d="M0.87 3.98L0.87 13.78L5.33 13.78C7.01 13.78 8.23 12.75 8.23 11.13C8.23 9.94 7.53 9.21 6.58 8.95L6.58 8.78C7.53 8.51 8.23 7.78 8.23 6.61C8.23 4.93 7.03 3.98 5.33 3.98ZM2.72 5.71L5.15 5.71C5.94 5.71 6.47 6.06 6.47 6.85C6.47 7.63 5.94 7.99 5.15 7.99L2.72 7.99ZM2.72 9.73L5.15 9.73C5.94 9.73 6.47 10.11 6.47 10.89C6.47 11.68 5.94 12.04 5.15 12.04L2.72 12.04ZM16.35 13.78L16.35 6.83L14.59 6.83L14.59 10.42C14.59 11.65 13.99 12.35 12.85 12.35C11.84 12.35 11.28 11.77 11.28 10.81L11.28 6.83L9.52 6.83L9.52 10.98C9.52 12.78 10.68 13.89 12.22 13.89C13.50 13.89 14.14 13.30 14.42 12.66L14.62 12.66L14.62 13.78ZM23.21 6.83L23.21 7.81L23.02 7.81C22.65 7.22 22.04 6.64 20.80 6.64C19.07 6.64 17.61 8.12 17.61 10.19C17.61 12.26 19.07 13.75 20.80 13.75C22.04 13.75 22.65 13.16 23.02 12.57L23.18 12.57L23.18 14.62C23.18 14.90 23.04 15.04 22.79 15.04L18.31 15.04L18.31 16.58L23.58 16.58C24.36 16.58 24.95 16.02 24.95 15.23L24.95 6.83ZM21.28 12.18C20.22 12.18 19.38 11.48 19.38 10.19C19.38 8.90 20.22 8.20 21.28 8.20C22.37 8.20 23.18 8.93 23.18 10.19C23.18 11.45 22.37 12.18 21.28 12.18ZM26.29 8.43L27.72 9.35C28.15 8.62 28.73 8.15 29.65 8.15C30.60 8.15 31.11 8.67 31.11 9.32L31.11 9.49L28.32 9.80C27.03 9.94 26.15 10.70 26.15 11.80C26.15 13.13 27.19 13.97 28.76 13.97C30.25 13.97 30.77 13.24 30.94 12.94L31.14 12.94L31.14 13.78L32.87 13.78L32.87 9.34C32.87 7.71 31.64 6.64 29.75 6.64C28.06 6.64 27.12 7.39 26.29 8.43ZM28 11.70C28 11.30 28.32 11.06 28.98 10.98L31.11 10.72L31.11 10.84C31.11 11.79 30.42 12.52 29.19 12.52C28.41 12.52 28 12.18 28 11.70ZM34.50 3.98L34.50 13.78L36.34 13.78L36.34 9.73L40.04 9.73L40.04 13.78L41.89 13.78L41.89 3.98L40.04 3.98L40.04 7.99L36.34 7.99L36.34 3.98ZM43.18 10.30C43.18 12.49 44.77 13.97 46.82 13.97C48.86 13.97 50.46 12.49 50.46 10.30C50.46 8.12 48.86 6.64 46.82 6.64C44.77 6.64 43.18 8.12 43.18 10.30ZM44.94 10.30C44.94 9.07 45.70 8.26 46.82 8.26C47.94 8.26 48.69 9.07 48.69 10.30C48.69 11.54 47.94 12.35 46.82 12.35C45.70 12.35 44.94 11.54 44.94 10.30ZM51.46 8.79C51.46 10.08 52.35 10.68 54.29 10.95L54.50 10.98C55.26 11.07 55.97 11.13 55.97 11.65C55.97 12.19 55.31 12.49 54.63 12.49C53.73 12.49 52.81 12.04 52.37 11.13L50.96 12.01C51.60 12.99 52.67 13.97 54.59 13.97C56.43 13.97 57.71 12.98 57.71 11.62C57.71 10.35 56.88 9.79 54.66 9.49L54.45 9.46C53.72 9.37 53.20 9.28 53.20 8.78C53.20 8.36 53.56 8.09 54.19 8.09C55.12 8.09 55.82 8.62 56.35 9.25L57.62 8.25C56.69 7.27 55.68 6.64 54.25 6.64C52.64 6.64 51.46 7.50 51.46 8.79ZM58.16 6.83L58.16 8.37L59.92 8.37L59.92 12.43C59.92 13.22 60.51 13.78 61.29 13.78L63.20 13.78L63.20 12.24L62.08 12.24C61.82 12.24 61.68 12.10 61.68 11.82L61.68 8.37L63.59 8.37L63.59 6.83L61.68 6.83L61.68 4.68L59.92 4.68L59.92 6.83ZM68.32 7.76L68.32 10.00C68.32 12.60 69.97 13.97 72.38 13.97C74.97 13.97 76.24 12.59 76.24 10.42L76.24 10.08L74.40 10.08L74.40 10.42C74.40 11.52 73.85 12.29 72.38 12.29C70.94 12.29 70.17 11.40 70.17 10.05L70.17 7.70C70.17 6.47 70.99 5.46 72.38 5.46C73.72 5.46 74.40 6.22 74.40 7.34L74.40 7.67L76.24 7.67L76.24 7.34C76.24 5.15 74.86 3.78 72.38 3.78C69.90 3.78 68.32 5.32 68.32 7.76ZM79.30 3.98L77.53 3.98L77.53 13.78L79.30 13.78ZM80.56 10.30C80.56 12.49 82.15 13.97 84.20 13.97C86.24 13.97 87.84 12.49 87.84 10.30C87.84 8.12 86.24 6.64 84.20 6.64C82.15 6.64 80.56 8.12 80.56 10.30ZM82.32 10.30C82.32 9.07 83.08 8.26 84.20 8.26C85.32 8.26 86.07 9.07 86.07 10.30C86.07 11.54 85.32 12.35 84.20 12.35C83.08 12.35 82.32 11.54 82.32 10.30ZM95.84 13.78L95.84 6.83L94.08 6.83L94.08 10.42C94.08 11.65 93.48 12.35 92.34 12.35C91.34 12.35 90.78 11.77 90.78 10.81L90.78 6.83L89.01 6.83L89.01 10.98C89.01 12.78 90.17 13.89 91.71 13.89C92.99 13.89 93.63 13.30 93.91 12.66L94.11 12.66L94.11 13.78ZM104.44 3.98L102.68 3.98L102.68 7.81L102.51 7.81C102.14 7.22 101.53 6.64 100.30 6.64C98.56 6.64 97.10 8.18 97.10 10.30C97.10 12.43 98.56 13.97 100.30 13.97C101.53 13.97 102.14 13.38 102.51 12.80L102.70 12.80L102.70 13.78L104.44 13.78ZM100.77 8.20C101.86 8.20 102.68 8.99 102.68 10.30C102.68 11.62 101.86 12.40 100.77 12.40C99.71 12.40 98.87 11.65 98.87 10.30C98.87 8.96 99.71 8.20 100.77 8.20Z"></path></g><!----><g data-v-423bf9ae="" id="5c52fe1a-dadc-4b02-b4b3-6b337cae4f86" transform="matrix(2.109407941393891,0,0,2.109407941393891,-29.470397069694542,-68.6104620659984)" stroke="none" fill="white"><path d="M77.742 54.63c.154-.969.258-1.953.258-2.964C78 41.359 69.641 33 59.333 33c-8.104 0-14.981 5.177-17.562 12.393-1.916-1.064-4.088-1.727-6.438-1.727-6.552 0-11.974 4.74-13.094 10.969C17.521 55.739 14 59.947 14 65c0 5.891 4.776 10.666 10.667 10.666h50.666C81.224 75.666 86 70.891 86 65c0-5.058-3.531-9.273-8.258-10.37z"></path></g><!----><g data-v-423bf9ae="" id="08e510d1-815e-46c6-a25f-744368454a58" fill="white" transform="matrix(0.9291121142154074,0,0,0.9291121142154074,171.39423131830344,57.305574870196054)"><path d="M0.52 3.49C0.52 3.72 0.63 3.74 0.80 3.74L1.41 3.74C1.47 3.74 1.54 4.79 1.54 5.71C1.54 5.80 1.60 8.27 1.60 9.83L1.60 11.17C1.60 11.84 1.58 12.18 1.53 12.18L0.94 12.18C0.71 12.18 0.64 12.19 0.64 12.39C0.64 12.63 0.66 12.68 0.85 12.68C1.06 12.68 1.90 12.64 2.32 12.64C2.74 12.64 3.68 12.68 4.00 12.68C4.17 12.68 4.20 12.61 4.20 12.40C4.20 12.24 4.17 12.18 4.00 12.18L2.87 12.18C2.81 12.18 2.83 10.16 2.79 8.33C2.79 8.08 2.77 8.09 2.97 8.09L5.39 8.09C6.09 8.09 6.12 8.19 6.12 8.30L6.12 9.16C6.12 9.28 6.30 9.28 6.41 9.28C6.51 9.28 6.64 9.28 6.64 9.17C6.64 8.99 6.61 8.33 6.61 7.83C6.61 7.32 6.64 6.82 6.64 6.69C6.64 6.58 6.52 6.58 6.40 6.58C6.23 6.58 6.12 6.58 6.12 6.71L6.12 7.45C6.12 7.62 5.67 7.63 5.39 7.63L2.97 7.63C2.76 7.63 2.79 7.66 2.79 7.45C2.77 7.13 2.76 6.15 2.76 5.26C2.76 4.52 2.77 3.71 2.84 3.71C4.24 3.71 6.43 3.75 6.72 3.79C6.72 3.96 6.68 4.82 6.68 4.89C6.68 5.04 6.75 5.10 6.93 5.10C7.13 5.10 7.20 5.08 7.20 4.94C7.20 3.85 7.25 3.36 7.25 3.09C7.25 2.93 7.17 2.90 6.97 2.90C6.85 2.90 6.78 2.90 6.75 3.11C6.73 3.25 6.80 3.25 5.85 3.25C5.25 3.25 2.97 3.29 2.23 3.29C1.74 3.29 0.80 3.25 0.70 3.25C0.57 3.25 0.52 3.30 0.52 3.49ZM14.24 12.39C14.24 12.63 14.24 12.68 14.43 12.68C14.60 12.68 14.92 12.64 15.50 12.64C16.11 12.64 16.66 12.68 16.81 12.68C16.98 12.68 16.98 12.61 16.98 12.40C16.98 12.24 16.98 12.18 16.81 12.18L15.74 12.18C15.74 12.18 15.72 12.18 15.72 12.17C15.74 11.87 16.51 9.90 16.86 9.02C16.93 8.83 16.94 8.79 17.15 8.79L19.98 8.79C20.12 8.79 20.12 8.81 20.19 9.03C20.45 9.77 21.17 11.89 21.17 12.17C21.17 12.18 21.15 12.18 21.15 12.18L20.38 12.18C20.16 12.18 20.15 12.19 20.15 12.39C20.15 12.63 20.16 12.68 20.33 12.68C20.65 12.68 21.52 12.64 21.94 12.64C22.36 12.64 23.03 12.68 23.24 12.68C23.38 12.68 23.39 12.61 23.39 12.40C23.39 12.24 23.38 12.18 23.24 12.18L22.75 12.18C22.65 12.18 21.63 9.34 21.07 7.78L19.39 3.07C19.38 3.00 19.31 2.94 19.22 2.94C19.10 2.94 19.00 3.16 18.91 3.35C18.76 3.71 18.52 3.84 18.41 4.13L16.93 7.57C16.74 8.01 15.04 12.18 14.91 12.18L14.49 12.18C14.27 12.18 14.24 12.19 14.24 12.39ZM17.14 8.33C17.14 8.30 17.16 8.23 17.21 8.13L18.58 4.77C18.62 4.66 18.65 4.61 18.68 4.61C18.69 4.61 18.70 4.63 18.75 4.77L19.91 8.18C19.94 8.25 19.95 8.29 19.95 8.32C19.95 8.36 19.92 8.37 19.82 8.37L17.32 8.37C17.14 8.37 17.14 8.34 17.14 8.33ZM31.36 5.77C31.36 9.07 36.34 8.20 36.34 10.65C36.34 11.59 35.50 12.31 34.52 12.31C33.70 12.31 32.10 11.83 32.07 11.47L31.99 10.15C31.98 9.97 31.91 9.91 31.72 9.91L31.65 9.91C31.44 9.91 31.44 10.00 31.44 10.12C31.44 10.32 31.56 11.66 31.58 12.17C31.60 12.38 32.86 12.85 34.40 12.85C35.97 12.85 37.58 11.87 37.58 10.11C37.58 6.79 32.61 7.87 32.61 5.32C32.61 4.31 33.39 3.56 34.43 3.56C35.45 3.56 36.54 4.58 36.54 4.89C36.54 5.01 36.50 5.73 36.50 5.78C36.50 5.92 36.54 5.99 36.81 5.99C37.04 5.99 37.06 5.94 37.06 5.75C37.06 5.04 37.14 3.68 37.14 3.53C37.14 3.30 37.10 3.29 36.83 3.29C36.61 3.29 36.60 3.32 36.58 3.53C36.58 3.61 36.57 3.78 36.53 3.78C36.47 3.78 36.39 3.74 36.32 3.68C35.52 3.14 34.90 3.08 34.40 3.08C32.87 3.08 31.36 4.17 31.36 5.77ZM45.14 5.01C45.14 5.17 45.32 5.17 45.44 5.17C45.60 5.17 45.64 5.15 45.65 4.97L45.77 3.89C45.78 3.81 46.33 3.75 47.08 3.75L49.07 3.75C49.13 3.75 49.15 4.35 49.15 4.97C49.15 6.43 49.10 12.18 48.97 12.18L48.10 12.18C47.88 12.18 47.84 12.19 47.84 12.39C47.84 12.63 47.85 12.68 48.05 12.68C48.37 12.68 49.35 12.64 49.77 12.64C50.19 12.64 51.13 12.68 51.45 12.68C51.62 12.68 51.65 12.61 51.65 12.40C51.65 12.24 51.62 12.18 51.45 12.18L50.46 12.18C50.43 12.18 50.43 11.76 50.43 11.31C50.43 9.56 50.51 5.96 50.51 5.92C50.53 5.18 50.53 3.75 50.62 3.75L52.23 3.75C52.95 3.75 53.77 3.78 53.77 3.85C53.77 3.99 53.73 4.90 53.73 4.97C53.73 5.12 53.80 5.17 53.98 5.17C54.18 5.17 54.25 5.17 54.25 5.03C54.25 3.93 54.31 3.40 54.31 3.14C54.31 2.94 54.22 2.94 54.03 2.94C53.87 2.94 53.82 2.98 53.80 3.16C53.80 3.23 53.16 3.28 52.32 3.28L47.32 3.28C46.66 3.28 45.85 3.28 45.85 3.21L45.85 3.07C45.85 2.94 45.72 2.94 45.63 2.94C45.40 2.94 45.37 3.00 45.36 3.19C45.30 3.89 45.14 4.97 45.14 5.01ZM71.93 7.91C71.93 11.31 74.30 12.87 76.89 12.87C78.67 12.87 80.44 11.90 80.49 11.59C80.65 10.29 80.71 9.70 80.71 9.66C80.71 9.56 80.67 9.52 80.50 9.51C80.44 9.51 80.39 9.49 80.35 9.49C80.23 9.49 80.18 9.53 80.15 9.70L79.97 11.33C79.95 11.45 78.85 12.24 77.28 12.24C75.15 12.24 73.44 10.29 73.44 7.94C73.44 5.42 74.87 3.54 76.87 3.54C78.72 3.54 80.07 5.01 80.07 5.17C80.07 5.29 80.01 6.40 80.01 6.45C80.01 6.59 80.05 6.64 80.32 6.64C80.51 6.64 80.58 6.62 80.58 6.44C80.58 5.73 80.64 3.92 80.64 3.67C80.64 3.47 80.53 3.44 80.32 3.44C80.09 3.44 80.07 3.50 80.07 3.67L80.07 4.05C80.07 4.16 80.02 4.16 79.90 4.06C79.62 3.86 78.64 3.04 76.97 3.04C74.13 3.04 71.93 4.96 71.93 7.91ZM89.10 12.39C89.10 12.63 89.10 12.68 89.29 12.68C89.61 12.68 90.55 12.64 90.97 12.64C91.39 12.64 92.22 12.68 92.54 12.68C92.71 12.68 92.71 12.61 92.71 12.40C92.71 12.24 92.71 12.18 92.54 12.18L91.62 12.18C91.53 12.18 91.49 9.93 91.49 8.20C91.49 8.01 91.49 8.01 91.62 8.01L96.85 8.01C96.92 8.01 96.94 8.01 96.94 8.18L96.94 9.91C96.94 11.05 96.92 12.18 96.87 12.18L96.10 12.18C95.87 12.18 95.83 12.19 95.83 12.39C95.83 12.63 95.84 12.68 96.04 12.68C96.36 12.68 97.20 12.64 97.62 12.64C98.04 12.64 98.63 12.68 98.95 12.68C99.12 12.68 99.13 12.61 99.13 12.40C99.13 12.24 99.12 12.18 98.95 12.18L98.21 12.18C98.17 12.18 98.15 9.27 98.15 7.04C98.15 5.40 98.15 3.70 98.20 3.70L98.81 3.70C99.04 3.70 99.08 3.68 99.08 3.49C99.08 3.25 99.06 3.19 98.87 3.19C98.73 3.19 98.10 3.23 97.51 3.23C96.84 3.23 96.24 3.19 96.01 3.19C95.82 3.19 95.79 3.22 95.79 3.44C95.79 3.67 95.86 3.70 96.03 3.70L96.82 3.70C96.88 3.70 96.94 4.79 96.94 5.71L96.94 7.42C96.94 7.59 96.94 7.59 96.77 7.59L91.66 7.59C91.49 7.59 91.49 7.59 91.49 7.38C91.49 6.96 91.48 6.23 91.48 5.53C91.48 4.66 91.49 3.70 91.55 3.70L92.32 3.70C92.54 3.70 92.58 3.68 92.58 3.49C92.58 3.25 92.57 3.19 92.37 3.19C92.05 3.19 91.46 3.23 90.86 3.23C90.27 3.23 89.78 3.19 89.56 3.19C89.38 3.19 89.28 3.21 89.28 3.44C89.28 3.68 89.39 3.70 89.56 3.70L90.17 3.70C90.23 3.70 90.24 5.59 90.24 7.18L90.24 8.61C90.24 10.08 90.23 12.18 90.16 12.18L89.35 12.18C89.12 12.18 89.10 12.19 89.10 12.39ZM107.17 12.39C107.17 12.63 107.20 12.68 107.39 12.68C107.72 12.68 108.68 12.64 109.10 12.64C109.52 12.64 114.03 12.68 114.35 12.68C114.48 12.68 114.63 12.66 114.63 12.49C114.63 12.07 114.67 11.23 114.67 10.53C114.67 10.39 114.52 10.39 114.39 10.39C114.28 10.39 114.16 10.39 114.16 10.51C114.14 11.06 114.14 11.41 114.11 11.76C114.09 12.01 114.09 12.04 113.99 12.04C113.83 12.04 111.20 12.08 109.70 12.08C109.63 12.08 109.59 10.11 109.55 8.26C109.55 8.06 109.59 8.09 109.73 8.09L112.01 8.09C112.71 8.09 112.74 8.20 112.74 8.30L112.74 9.00C112.74 9.14 112.92 9.14 113.04 9.14C113.13 9.14 113.26 9.13 113.26 9.02C113.26 8.83 113.23 8.33 113.23 7.83C113.23 7.32 113.26 6.83 113.26 6.71C113.26 6.59 113.12 6.58 113.02 6.58C112.91 6.58 112.74 6.59 112.74 6.72L112.74 7.45C112.74 7.62 112.29 7.63 112.01 7.63L109.68 7.63C109.56 7.63 109.55 7.63 109.55 7.45C109.54 6.75 109.52 6.06 109.52 5.46C109.52 5.12 109.52 3.71 109.61 3.71C110.84 3.71 113.34 3.75 113.34 3.81C113.34 3.99 113.30 4.83 113.30 4.89C113.30 5.04 113.37 5.10 113.55 5.10C113.75 5.10 113.82 5.08 113.82 4.94C113.82 3.85 113.88 3.36 113.88 3.09C113.88 2.91 113.79 2.90 113.60 2.90C113.40 2.90 113.40 2.95 113.37 3.11C113.36 3.25 113.43 3.25 112.52 3.25C111.90 3.25 109.76 3.29 108.99 3.29C108.50 3.29 107.56 3.25 107.46 3.25C107.34 3.25 107.28 3.30 107.28 3.49C107.28 3.72 107.35 3.74 107.52 3.74L108.18 3.74C108.23 3.74 108.30 4.79 108.30 5.71C108.30 5.80 108.36 8.27 108.36 9.83L108.36 11.17C108.36 11.84 108.33 12.18 108.30 12.18L107.45 12.18C107.23 12.18 107.17 12.21 107.17 12.39ZM122.50 12.39C122.50 12.63 122.50 12.68 122.70 12.68C122.86 12.68 123.19 12.64 123.76 12.64C124.38 12.64 124.92 12.68 125.08 12.68C125.24 12.68 125.24 12.61 125.24 12.40C125.24 12.24 125.24 12.18 125.08 12.18L124.00 12.18C124.00 12.18 123.98 12.18 123.98 12.17C124.00 11.87 124.77 9.90 125.12 9.02C125.19 8.83 125.20 8.79 125.41 8.79L128.24 8.79C128.38 8.79 128.38 8.81 128.45 9.03C128.72 9.77 129.43 11.89 129.43 12.17C129.43 12.18 129.42 12.18 129.42 12.18L128.65 12.18C128.42 12.18 128.41 12.19 128.41 12.39C128.41 12.63 128.42 12.68 128.59 12.68C128.91 12.68 129.78 12.64 130.20 12.64C130.62 12.64 131.29 12.68 131.50 12.68C131.64 12.68 131.66 12.61 131.66 12.40C131.66 12.24 131.64 12.18 131.50 12.18L131.01 12.18C130.91 12.18 129.89 9.34 129.33 7.78L127.65 3.07C127.64 3.00 127.57 2.94 127.48 2.94C127.36 2.94 127.26 3.16 127.18 3.35C127.02 3.71 126.78 3.84 126.67 4.13L125.19 7.57C125.01 8.01 123.30 12.18 123.17 12.18L122.75 12.18C122.53 12.18 122.50 12.19 122.50 12.39ZM125.40 8.33C125.40 8.30 125.43 8.23 125.47 8.13L126.84 4.77C126.88 4.66 126.91 4.61 126.94 4.61C126.95 4.61 126.97 4.63 127.01 4.77L128.17 8.18C128.20 8.25 128.21 8.29 128.21 8.32C128.21 8.36 128.18 8.37 128.09 8.37L125.58 8.37C125.40 8.37 125.40 8.34 125.40 8.33ZM139.41 3.51C139.41 3.75 139.45 3.79 139.66 3.79L140.59 3.77C140.64 3.77 140.64 4.47 140.64 5.24L140.64 5.96C140.64 7.70 140.63 12.18 140.52 12.18L139.85 12.18C139.62 12.18 139.55 12.19 139.55 12.39C139.55 12.63 139.57 12.68 139.76 12.68C139.89 12.68 140.87 12.64 141.29 12.64C141.71 12.64 142.58 12.68 142.90 12.68C143.07 12.68 143.09 12.61 143.09 12.40C143.09 12.24 143.07 12.18 142.90 12.18L141.90 12.18C141.86 12.18 141.85 10.60 141.85 9.58L141.85 8.65C141.85 8.57 141.85 8.54 141.95 8.54C142.34 8.54 142.66 8.58 143.16 8.58C145.15 8.58 146.55 7.83 146.55 6.01C146.55 4.09 145.07 3.22 143.15 3.22C142.83 3.22 141.74 3.29 141.32 3.29C141.08 3.29 139.89 3.26 139.66 3.26C139.48 3.26 139.41 3.28 139.41 3.51ZM141.86 8.05L141.86 4.40C141.86 4.05 141.88 3.70 141.92 3.68C142.04 3.67 142.21 3.67 142.35 3.67C144.00 3.67 145.26 4.47 145.26 5.80C145.26 7.57 143.93 8.19 142.35 8.19C142.10 8.19 141.86 8.16 141.86 8.05ZM164.11 3.51C164.11 3.75 164.15 3.79 164.36 3.79L165.28 3.77C165.34 3.77 165.34 4.47 165.34 5.24L165.34 5.96C165.34 7.70 165.33 12.18 165.21 12.18L164.54 12.18C164.32 12.18 164.25 12.19 164.25 12.39C164.25 12.63 164.26 12.68 164.46 12.68C164.58 12.68 165.56 12.64 165.98 12.64C166.40 12.64 167.27 12.68 167.59 12.68C167.76 12.68 167.79 12.61 167.79 12.40C167.79 12.24 167.76 12.18 167.59 12.18L166.60 12.18C166.56 12.18 166.54 10.60 166.54 9.58L166.54 8.65C166.54 8.57 166.54 8.54 166.64 8.54C167.03 8.54 167.36 8.58 167.86 8.58C169.85 8.58 171.25 7.83 171.25 6.01C171.25 4.09 169.76 3.22 167.85 3.22C167.52 3.22 166.43 3.29 166.01 3.29C165.77 3.29 164.58 3.26 164.36 3.26C164.18 3.26 164.11 3.28 164.11 3.51ZM166.56 8.05L166.56 4.40C166.56 4.05 166.57 3.70 166.61 3.68C166.74 3.67 166.91 3.67 167.05 3.67C168.70 3.67 169.96 4.47 169.96 5.80C169.96 7.57 168.63 8.19 167.05 8.19C166.80 8.19 166.56 8.16 166.56 8.05ZM178.93 8.15C178.93 11.17 181.27 12.80 183.53 12.80C186.31 12.80 188.29 10.89 188.29 8.06C188.29 5.33 186.54 3.11 183.74 3.11C181.13 3.11 178.93 5.10 178.93 8.15ZM180.33 7.77C180.33 5.64 181.62 3.58 183.60 3.58C185.84 3.58 186.91 5.81 186.91 7.94C186.91 10.08 185.81 12.32 183.54 12.32C181.55 12.32 180.33 10.28 180.33 7.77ZM195.69 3.51C195.69 3.75 195.80 3.77 195.97 3.77L196.48 3.77C196.56 3.77 198.70 10.99 198.73 11.07C199.08 12.14 199.19 12.99 199.50 12.99C199.72 12.99 199.82 12.67 200.10 12.26C200.26 12.05 200.35 12.01 200.49 11.66L202.48 6.45C202.55 6.29 202.58 6.20 202.61 6.20C202.64 6.20 202.66 6.29 202.71 6.45C203.31 8.51 203.98 11.03 203.99 11.07C204.34 12.14 204.46 12.99 204.76 12.99C204.99 12.99 205.09 12.67 205.37 12.26C205.52 12.05 205.62 12.01 205.76 11.66L208.85 4.06C208.95 3.81 208.95 3.77 209.31 3.77C209.55 3.77 209.61 3.71 209.61 3.53C209.61 3.32 209.57 3.26 209.37 3.26C209.23 3.26 208.92 3.30 208.42 3.30C207.68 3.30 207.17 3.26 206.98 3.26C206.79 3.26 206.70 3.28 206.70 3.51C206.70 3.75 206.81 3.77 206.98 3.77L207.89 3.77C207.96 3.77 207.97 3.81 207.97 3.95C207.97 4.63 206.37 8.72 205.66 10.63C205.52 10.99 205.45 11.17 205.41 11.17C205.35 11.17 205.30 10.99 205.17 10.60C205.09 10.30 204.16 7.18 203.63 5.22C203.59 5.05 203.38 4.17 203.38 3.85C203.38 3.81 203.38 3.79 203.39 3.77L204.27 3.77C204.46 3.77 204.55 3.75 204.55 3.56C204.55 3.32 204.51 3.26 204.32 3.26C203.99 3.26 203.06 3.30 202.64 3.30C202.22 3.30 201.31 3.26 201.08 3.26C200.90 3.26 200.80 3.28 200.80 3.51C200.80 3.75 200.91 3.77 201.08 3.77L201.88 3.77C201.92 3.77 202.10 4.27 202.26 4.83C202.31 5.05 202.36 5.15 202.36 5.25C202.36 5.31 202.36 5.38 202.31 5.49L200.31 10.60C200.21 10.82 200.19 10.95 200.14 10.95C200.10 10.95 200.07 10.84 199.99 10.60C199.91 10.32 198.90 7.27 198.30 5.22C198.25 5.08 197.93 3.96 197.92 3.85C197.93 3.77 197.97 3.77 198.02 3.77L198.72 3.77C198.94 3.77 199.01 3.75 199.01 3.56C199.01 3.32 198.97 3.26 198.77 3.26C198.45 3.26 197.74 3.30 197.32 3.30C196.90 3.30 196.20 3.26 195.97 3.26C195.79 3.26 195.69 3.28 195.69 3.51ZM217.22 12.39C217.22 12.63 217.25 12.68 217.45 12.68C217.77 12.68 218.74 12.64 219.16 12.64C219.58 12.64 224.08 12.68 224.41 12.68C224.53 12.68 224.69 12.66 224.69 12.49C224.69 12.07 224.73 11.23 224.73 10.53C224.73 10.39 224.57 10.39 224.45 10.39C224.34 10.39 224.21 10.39 224.21 10.51C224.20 11.06 224.20 11.41 224.17 11.76C224.14 12.01 224.14 12.04 224.04 12.04C223.89 12.04 221.26 12.08 219.76 12.08C219.69 12.08 219.65 10.11 219.60 8.26C219.60 8.06 219.65 8.09 219.79 8.09L222.07 8.09C222.77 8.09 222.80 8.20 222.80 8.30L222.80 9.00C222.80 9.14 222.98 9.14 223.09 9.14C223.19 9.14 223.31 9.13 223.31 9.02C223.31 8.83 223.29 8.33 223.29 7.83C223.29 7.32 223.31 6.83 223.31 6.71C223.31 6.59 223.17 6.58 223.08 6.58C222.96 6.58 222.80 6.59 222.80 6.72L222.80 7.45C222.80 7.62 222.35 7.63 222.07 7.63L219.73 7.63C219.62 7.63 219.60 7.63 219.60 7.45C219.59 6.75 219.58 6.06 219.58 5.46C219.58 5.12 219.58 3.71 219.66 3.71C220.89 3.71 223.40 3.75 223.40 3.81C223.40 3.99 223.36 4.83 223.36 4.89C223.36 5.04 223.43 5.10 223.61 5.10C223.80 5.10 223.87 5.08 223.87 4.94C223.87 3.85 223.93 3.36 223.93 3.09C223.93 2.91 223.85 2.90 223.65 2.90C223.45 2.90 223.45 2.95 223.43 3.11C223.41 3.25 223.48 3.25 222.57 3.25C221.96 3.25 219.81 3.29 219.04 3.29C218.55 3.29 217.62 3.25 217.52 3.25C217.39 3.25 217.34 3.30 217.34 3.49C217.34 3.72 217.41 3.74 217.57 3.74L218.23 3.74C218.29 3.74 218.36 4.79 218.36 5.71C218.36 5.80 218.41 8.27 218.41 9.83L218.41 11.17C218.41 11.84 218.39 12.18 218.36 12.18L217.50 12.18C217.28 12.18 217.22 12.21 217.22 12.39ZM232.69 3.51C232.69 3.72 232.76 3.79 232.96 3.79L233.77 3.77C233.87 3.77 233.91 6.61 233.91 8.55L233.91 10.42C233.91 11.30 233.90 12.18 233.86 12.18L233.25 12.18C233.03 12.18 232.96 12.19 232.96 12.39C232.96 12.63 233.00 12.68 233.20 12.68C233.32 12.68 234.15 12.64 234.57 12.64C234.99 12.64 235.76 12.68 236.08 12.68C236.25 12.68 236.28 12.61 236.28 12.40C236.28 12.24 236.25 12.18 236.08 12.18L235.27 12.18C235.20 12.18 235.12 9.18 235.12 8.37C235.12 8.30 235.12 8.26 235.23 8.26C235.62 8.26 236.22 8.27 236.52 8.27C238.76 8.32 238.90 10.00 238.90 11.68L238.90 12.49C238.90 12.61 238.95 12.64 239.05 12.64C239.05 12.64 240.49 12.68 240.97 12.68C241.14 12.68 241.19 12.64 241.19 12.53C241.19 12.24 241.14 12.18 240.98 12.18L240.34 12.18C240.24 12.18 240.21 12.14 240.18 11.31C240.10 8.99 238.73 8.34 237.82 8.05C237.68 8.01 237.71 8.01 237.82 7.95C238.41 7.69 239.72 6.94 239.72 5.63C239.72 3.63 238.03 3.21 236.63 3.21C236.31 3.21 235.02 3.29 234.60 3.29C234.18 3.29 233.20 3.26 232.97 3.26C232.79 3.26 232.69 3.28 232.69 3.51ZM235.12 7.80L235.12 4.40C235.12 4.05 235.14 3.68 235.19 3.68C235.40 3.65 235.68 3.65 235.90 3.65C237.20 3.65 238.45 4.47 238.45 5.82C238.45 6.99 237.90 7.57 237.24 7.88C237.20 7.90 237.16 7.90 237.09 7.90C236.61 7.88 235.90 7.88 235.30 7.87C235.13 7.87 235.12 7.85 235.12 7.80ZM248.67 3.49C248.67 3.72 248.78 3.74 248.95 3.74L249.56 3.74C249.62 3.74 249.69 4.79 249.69 5.71C249.69 5.80 249.75 8.27 249.75 9.83L249.75 11.17C249.75 11.84 249.73 12.18 249.68 12.18L249.09 12.18C248.86 12.18 248.79 12.19 248.79 12.39C248.79 12.63 248.81 12.68 249.00 12.68C249.21 12.68 250.05 12.64 250.47 12.64C250.89 12.64 251.83 12.68 252.15 12.68C252.32 12.68 252.35 12.61 252.35 12.40C252.35 12.24 252.32 12.18 252.15 12.18L251.02 12.18C250.96 12.18 250.98 10.16 250.94 8.33C250.94 8.08 250.92 8.09 251.12 8.09L253.54 8.09C254.24 8.09 254.27 8.19 254.27 8.30L254.27 9.16C254.27 9.28 254.45 9.28 254.56 9.28C254.66 9.28 254.79 9.28 254.79 9.17C254.79 8.99 254.76 8.33 254.76 7.83C254.76 7.32 254.79 6.82 254.79 6.69C254.79 6.58 254.67 6.58 254.55 6.58C254.38 6.58 254.27 6.58 254.27 6.71L254.27 7.45C254.27 7.62 253.82 7.63 253.54 7.63L251.12 7.63C250.91 7.63 250.94 7.66 250.94 7.45C250.92 7.13 250.91 6.15 250.91 5.26C250.91 4.52 250.92 3.71 250.99 3.71C252.39 3.71 254.58 3.75 254.87 3.79C254.87 3.96 254.83 4.82 254.83 4.89C254.83 5.04 254.90 5.10 255.08 5.10C255.28 5.10 255.35 5.08 255.35 4.94C255.35 3.85 255.40 3.36 255.40 3.09C255.40 2.93 255.32 2.90 255.12 2.90C255.00 2.90 254.93 2.90 254.90 3.11C254.88 3.25 254.95 3.25 254.00 3.25C253.40 3.25 251.12 3.29 250.38 3.29C249.89 3.29 248.95 3.25 248.85 3.25C248.72 3.25 248.67 3.30 248.67 3.49ZM263.37 3.51C263.37 3.75 263.45 3.77 263.62 3.77L264.15 3.77C264.21 3.77 264.21 4.12 264.21 4.55C264.21 5.66 264.19 8.96 264.19 9.42C264.19 11.13 264.45 12.80 267.30 12.80C268.38 12.80 269.54 12.38 270.20 12.00C270.45 11.86 270.75 11.72 270.83 11.72C271.10 11.72 271.36 12.74 271.70 12.74C272.02 12.74 272.03 12.35 272.03 12.25C272.03 11.96 272.09 10.08 272.13 8.16C272.19 6.12 272.17 3.77 272.29 3.77L272.61 3.77C272.83 3.77 272.90 3.75 272.90 3.56C272.90 3.32 272.86 3.26 272.66 3.26C272.52 3.26 271.99 3.30 271.57 3.30C271.15 3.30 270.35 3.26 270.13 3.26C269.95 3.26 269.85 3.28 269.85 3.51C269.85 3.75 269.96 3.77 270.13 3.77L270.83 3.77C270.90 3.77 270.91 4.30 270.91 4.87L270.91 9.14C270.91 11.19 270.91 11.12 270.58 11.34C270.19 11.61 269.37 12.08 268.20 12.08C266.22 12.08 265.43 11.17 265.43 9.41C265.43 8.82 265.50 3.77 265.61 3.77L266.52 3.77C266.74 3.77 266.78 3.75 266.78 3.56C266.78 3.32 266.77 3.26 266.57 3.26C266.25 3.26 265.37 3.30 264.95 3.30C264.53 3.30 263.84 3.26 263.62 3.26C263.44 3.26 263.37 3.28 263.37 3.51ZM280.94 12.39C280.94 12.63 280.97 12.68 281.16 12.68C281.48 12.68 282.45 12.64 282.87 12.64C283.29 12.64 287.64 12.68 287.97 12.68C288.23 12.68 288.30 12.66 288.32 12.49C288.37 12.08 288.61 10.72 288.61 10.60C288.61 10.47 288.46 10.44 288.29 10.43C288.19 10.42 288.11 10.46 288.09 10.56L287.92 11.76C287.88 12.05 287.87 12.03 287.64 12.04C287.49 12.05 284.98 12.12 283.56 12.12C283.51 12.12 283.47 11.38 283.47 10.54L283.47 6.66C283.47 5.40 283.49 3.70 283.58 3.70L284.56 3.70C284.80 3.70 284.83 3.63 284.83 3.44C284.83 3.23 284.82 3.19 284.58 3.19C284.26 3.19 283.32 3.23 282.90 3.23C282.48 3.23 281.54 3.19 281.32 3.19C281.09 3.19 281.04 3.22 281.04 3.44C281.04 3.65 281.08 3.70 281.27 3.70L282.10 3.70C282.14 3.70 282.17 4.23 282.17 4.90L282.17 8.13C282.17 10.07 282.14 12.18 282.06 12.18L281.22 12.18C280.99 12.18 280.94 12.21 280.94 12.39ZM306.24 5.77C306.24 9.07 311.22 8.20 311.22 10.65C311.22 11.59 310.38 12.31 309.40 12.31C308.57 12.31 306.98 11.83 306.95 11.47L306.87 10.15C306.85 9.97 306.78 9.91 306.60 9.91L306.53 9.91C306.32 9.91 306.32 10.00 306.32 10.12C306.32 10.32 306.43 11.66 306.46 12.17C306.47 12.38 307.73 12.85 309.27 12.85C310.84 12.85 312.45 11.87 312.45 10.11C312.45 6.79 307.48 7.87 307.48 5.32C307.48 4.31 308.27 3.56 309.30 3.56C310.32 3.56 311.42 4.58 311.42 4.89C311.42 5.01 311.37 5.73 311.37 5.78C311.37 5.92 311.42 5.99 311.68 5.99C311.92 5.99 311.93 5.94 311.93 5.75C311.93 5.04 312.02 3.68 312.02 3.53C312.02 3.30 311.98 3.29 311.71 3.29C311.49 3.29 311.47 3.32 311.46 3.53C311.46 3.61 311.44 3.78 311.40 3.78C311.35 3.78 311.26 3.74 311.19 3.68C310.39 3.14 309.78 3.08 309.27 3.08C307.75 3.08 306.24 4.17 306.24 5.77ZM320.42 12.39C320.42 12.63 320.45 12.68 320.64 12.68C320.96 12.68 321.93 12.64 322.35 12.64C322.77 12.64 327.28 12.68 327.60 12.68C327.73 12.68 327.88 12.66 327.88 12.49C327.88 12.07 327.92 11.23 327.92 10.53C327.92 10.39 327.77 10.39 327.64 10.39C327.53 10.39 327.40 10.39 327.40 10.51C327.39 11.06 327.39 11.41 327.36 11.76C327.33 12.01 327.33 12.04 327.24 12.04C327.08 12.04 324.45 12.08 322.95 12.08C322.88 12.08 322.84 10.11 322.80 8.26C322.80 8.06 322.84 8.09 322.98 8.09L325.26 8.09C325.96 8.09 325.99 8.20 325.99 8.30L325.99 9.00C325.99 9.14 326.17 9.14 326.28 9.14C326.38 9.14 326.51 9.13 326.51 9.02C326.51 8.83 326.48 8.33 326.48 7.83C326.48 7.32 326.51 6.83 326.51 6.71C326.51 6.59 326.37 6.58 326.27 6.58C326.16 6.58 325.99 6.59 325.99 6.72L325.99 7.45C325.99 7.62 325.54 7.63 325.26 7.63L322.92 7.63C322.81 7.63 322.80 7.63 322.80 7.45C322.78 6.75 322.77 6.06 322.77 5.46C322.77 5.12 322.77 3.71 322.85 3.71C324.09 3.71 326.59 3.75 326.59 3.81C326.59 3.99 326.55 4.83 326.55 4.89C326.55 5.04 326.62 5.10 326.80 5.10C327.00 5.10 327.07 5.08 327.07 4.94C327.07 3.85 327.12 3.36 327.12 3.09C327.12 2.91 327.04 2.90 326.84 2.90C326.65 2.90 326.65 2.95 326.62 3.11C326.61 3.25 326.68 3.25 325.77 3.25C325.15 3.25 323.01 3.29 322.24 3.29C321.75 3.29 320.81 3.25 320.71 3.25C320.59 3.25 320.53 3.30 320.53 3.49C320.53 3.72 320.60 3.74 320.77 3.74L321.43 3.74C321.48 3.74 321.55 4.79 321.55 5.71C321.55 5.80 321.61 8.27 321.61 9.83L321.61 11.17C321.61 11.84 321.58 12.18 321.55 12.18L320.70 12.18C320.47 12.18 320.42 12.21 320.42 12.39ZM335.89 3.51C335.89 3.72 335.96 3.79 336.15 3.79L336.97 3.77C337.06 3.77 337.11 6.61 337.11 8.55L337.11 10.42C337.11 11.30 337.09 12.18 337.05 12.18L336.45 12.18C336.22 12.18 336.15 12.19 336.15 12.39C336.15 12.63 336.20 12.68 336.39 12.68C336.52 12.68 337.34 12.64 337.76 12.64C338.18 12.64 338.95 12.68 339.28 12.68C339.44 12.68 339.47 12.61 339.47 12.40C339.47 12.24 339.44 12.18 339.28 12.18L338.46 12.18C338.39 12.18 338.31 9.18 338.31 8.37C338.31 8.30 338.31 8.26 338.42 8.26C338.81 8.26 339.42 8.27 339.71 8.27C341.95 8.32 342.09 10.00 342.09 11.68L342.09 12.49C342.09 12.61 342.15 12.64 342.24 12.64C342.24 12.64 343.69 12.68 344.16 12.68C344.33 12.68 344.39 12.64 344.39 12.53C344.39 12.24 344.33 12.18 344.18 12.18L343.53 12.18C343.43 12.18 343.41 12.14 343.38 11.31C343.29 8.99 341.92 8.34 341.01 8.05C340.87 8.01 340.90 8.01 341.01 7.95C341.60 7.69 342.92 6.94 342.92 5.63C342.92 3.63 341.22 3.21 339.82 3.21C339.50 3.21 338.21 3.29 337.79 3.29C337.37 3.29 336.39 3.26 336.17 3.26C335.99 3.26 335.89 3.28 335.89 3.51ZM338.31 7.80L338.31 4.40C338.31 4.05 338.34 3.68 338.38 3.68C338.59 3.65 338.87 3.65 339.09 3.65C340.40 3.65 341.64 4.47 341.64 5.82C341.64 6.99 341.10 7.57 340.44 7.88C340.40 7.90 340.35 7.90 340.28 7.90C339.81 7.88 339.09 7.88 338.49 7.87C338.32 7.87 338.31 7.85 338.31 7.80ZM350.74 3.51C350.74 3.75 350.84 3.77 351.01 3.77L351.44 3.77C351.53 3.77 354.31 10.99 354.35 11.07C354.84 12.18 354.94 12.99 355.15 12.99C355.42 12.99 355.47 12.67 355.75 12.26C355.91 12.04 355.99 12.01 356.15 11.66L359.38 4.06C359.49 3.81 359.48 3.77 359.84 3.77C360.07 3.77 360.14 3.75 360.14 3.56C360.14 3.32 360.09 3.26 359.90 3.26C359.76 3.26 359.23 3.30 358.81 3.30C358.39 3.30 357.56 3.26 357.34 3.26C357.14 3.26 357.08 3.29 357.08 3.51C357.08 3.75 357.21 3.77 357.38 3.77L358.37 3.77C358.44 3.77 358.46 3.81 358.46 3.95C358.46 4.63 356.78 8.72 356.05 10.63C355.91 10.99 355.82 11.17 355.78 11.17C355.74 11.17 355.64 10.98 355.50 10.60C354.93 9.10 353.79 6.01 353.28 4.49C353.19 4.27 353.11 3.93 353.11 3.79L353.11 3.77L354.09 3.77C354.31 3.77 354.38 3.75 354.38 3.56C354.38 3.32 354.34 3.26 354.14 3.26C353.82 3.26 352.74 3.30 352.32 3.30C351.90 3.30 351.19 3.26 351.01 3.26C350.83 3.26 350.74 3.28 350.74 3.51ZM367.61 12.39C367.61 12.63 367.65 12.68 367.85 12.68C368.17 12.68 368.93 12.64 369.64 12.64C370.30 12.64 371.10 12.68 371.32 12.68C371.49 12.68 371.52 12.61 371.52 12.40C371.52 12.24 371.49 12.18 371.32 12.18L370.36 12.18C370.26 12.18 370.23 9.55 370.23 7.76L370.23 5.87C370.23 5.14 370.26 3.70 370.36 3.70L371.27 3.70C371.49 3.70 371.52 3.68 371.52 3.49C371.52 3.25 371.49 3.19 371.32 3.19C371.00 3.19 370.33 3.23 369.67 3.23C368.86 3.23 368.14 3.19 367.92 3.19C367.74 3.19 367.67 3.21 367.67 3.44C367.67 3.68 367.75 3.70 367.92 3.70L368.84 3.70C368.89 3.70 368.96 4.79 368.96 5.71L368.96 7.08C368.96 8.92 368.94 12.18 368.83 12.18L367.91 12.18C367.68 12.18 367.61 12.19 367.61 12.39ZM379.48 7.91C379.48 11.31 381.85 12.87 384.44 12.87C386.22 12.87 388.00 11.90 388.04 11.59C388.21 10.29 388.26 9.70 388.26 9.66C388.26 9.56 388.22 9.52 388.05 9.51C388.00 9.51 387.94 9.49 387.90 9.49C387.79 9.49 387.73 9.53 387.70 9.70L387.52 11.33C387.51 11.45 386.40 12.24 384.83 12.24C382.70 12.24 381.00 10.29 381.00 7.94C381.00 5.42 382.42 3.54 384.43 3.54C386.27 3.54 387.62 5.01 387.62 5.17C387.62 5.29 387.56 6.40 387.56 6.45C387.56 6.59 387.60 6.64 387.87 6.64C388.07 6.64 388.14 6.62 388.14 6.44C388.14 5.73 388.19 3.92 388.19 3.67C388.19 3.47 388.08 3.44 387.87 3.44C387.65 3.44 387.62 3.50 387.62 3.67L387.62 4.05C387.62 4.16 387.58 4.16 387.45 4.06C387.17 3.86 386.19 3.04 384.52 3.04C381.68 3.04 379.48 4.96 379.48 7.91ZM396.65 12.39C396.65 12.63 396.68 12.68 396.87 12.68C397.19 12.68 398.16 12.64 398.58 12.64C399.00 12.64 403.51 12.68 403.83 12.68C403.96 12.68 404.11 12.66 404.11 12.49C404.11 12.07 404.15 11.23 404.15 10.53C404.15 10.39 404.00 10.39 403.87 10.39C403.76 10.39 403.63 10.39 403.63 10.51C403.62 11.06 403.62 11.41 403.59 11.76C403.56 12.01 403.56 12.04 403.47 12.04C403.31 12.04 400.68 12.08 399.18 12.08C399.11 12.08 399.07 10.11 399.03 8.26C399.03 8.06 399.07 8.09 399.21 8.09L401.49 8.09C402.19 8.09 402.22 8.20 402.22 8.30L402.22 9.00C402.22 9.14 402.40 9.14 402.51 9.14C402.61 9.14 402.74 9.13 402.74 9.02C402.74 8.83 402.71 8.33 402.71 7.83C402.71 7.32 402.74 6.83 402.74 6.71C402.74 6.59 402.60 6.58 402.50 6.58C402.39 6.58 402.22 6.59 402.22 6.72L402.22 7.45C402.22 7.62 401.77 7.63 401.49 7.63L399.15 7.63C399.04 7.63 399.03 7.63 399.03 7.45C399.01 6.75 399.00 6.06 399.00 5.46C399.00 5.12 399.00 3.71 399.08 3.71C400.32 3.71 402.82 3.75 402.82 3.81C402.82 3.99 402.78 4.83 402.78 4.89C402.78 5.04 402.85 5.10 403.03 5.10C403.23 5.10 403.30 5.08 403.30 4.94C403.30 3.85 403.35 3.36 403.35 3.09C403.35 2.91 403.27 2.90 403.07 2.90C402.88 2.90 402.88 2.95 402.85 3.11C402.84 3.25 402.91 3.25 402.00 3.25C401.38 3.25 399.24 3.29 398.47 3.29C397.98 3.29 397.04 3.25 396.94 3.25C396.82 3.25 396.76 3.30 396.76 3.49C396.76 3.72 396.83 3.74 397.00 3.74L397.66 3.74C397.71 3.74 397.78 4.79 397.78 5.71C397.78 5.80 397.84 8.27 397.84 9.83L397.84 11.17C397.84 11.84 397.81 12.18 397.78 12.18L396.93 12.18C396.70 12.18 396.65 12.21 396.65 12.39ZM412.33 5.77C412.33 9.07 417.31 8.20 417.31 10.65C417.31 11.59 416.47 12.31 415.49 12.31C414.67 12.31 413.07 11.83 413.04 11.47L412.96 10.15C412.94 9.97 412.87 9.91 412.69 9.91L412.62 9.91C412.41 9.91 412.41 10.00 412.41 10.12C412.41 10.32 412.52 11.66 412.55 12.17C412.57 12.38 413.83 12.85 415.37 12.85C416.93 12.85 418.54 11.87 418.54 10.11C418.54 6.79 413.57 7.87 413.57 5.32C413.57 4.31 414.36 3.56 415.39 3.56C416.42 3.56 417.51 4.58 417.51 4.89C417.51 5.01 417.47 5.73 417.47 5.78C417.47 5.92 417.51 5.99 417.77 5.99C418.01 5.99 418.03 5.94 418.03 5.75C418.03 5.04 418.11 3.68 418.11 3.53C418.11 3.30 418.07 3.29 417.80 3.29C417.58 3.29 417.56 3.32 417.55 3.53C417.55 3.61 417.54 3.78 417.49 3.78C417.44 3.78 417.35 3.74 417.28 3.68C416.49 3.14 415.87 3.08 415.37 3.08C413.84 3.08 412.33 4.17 412.33 5.77Z"></path></g></svg>