<svg data-v-fde0c5aa="" xmlns="http://www.w3.org/2000/svg" viewBox="0 0 300 300" class="font"><!----><defs data-v-fde0c5aa=""><linearGradient data-v-fde0c5aa="" gradientTransform="rotate(25)" id="deee0591-0cfa-450d-9dd6-72be2e48cda3" x1="0%" y1="0%" x2="100%" y2="0%"><stop data-v-fde0c5aa="" offset="0%" stop-color="#288B58" stop-opacity="1"></stop><stop data-v-fde0c5aa="" offset="100%" stop-color="#1522F1" stop-opacity="1"></stop></linearGradient></defs><rect data-v-fde0c5aa="" fill="url(#deee0591-0cfa-450d-9dd6-72be2e48cda3)" x="0" y="0" width="300px" height="300px" class="logo-background-square"></rect><defs data-v-fde0c5aa=""><!----></defs><g data-v-fde0c5aa="" id="5ee5f42e-1c12-459b-a586-9964bc9721e2" fill="#ffffff" transform="matrix(2.124167236151824,0,0,2.124167236151824,38.15197449441909,128.3759779006119)"><path d="M0.87 3.98L0.87 13.78L5.33 13.78C7.01 13.78 8.23 12.75 8.23 11.13C8.23 9.94 7.53 9.21 6.58 8.95L6.58 8.78C7.53 8.51 8.23 7.78 8.23 6.61C8.23 4.93 7.03 3.98 5.33 3.98ZM2.72 5.71L5.15 5.71C5.94 5.71 6.47 6.06 6.47 6.85C6.47 7.63 5.94 7.99 5.15 7.99L2.72 7.99ZM2.72 9.73L5.15 9.73C5.94 9.73 6.47 10.11 6.47 10.89C6.47 11.68 5.94 12.04 5.15 12.04L2.72 12.04ZM16.35 13.78L16.35 6.83L14.59 6.83L14.59 10.42C14.59 11.65 13.99 12.35 12.85 12.35C11.84 12.35 11.28 11.77 11.28 10.81L11.28 6.83L9.52 6.83L9.52 10.98C9.52 12.78 10.68 13.89 12.22 13.89C13.50 13.89 14.14 13.30 14.42 12.66L14.62 12.66L14.62 13.78ZM23.21 6.83L23.21 7.81L23.02 7.81C22.65 7.22 22.04 6.64 20.80 6.64C19.07 6.64 17.61 8.12 17.61 10.19C17.61 12.26 19.07 13.75 20.80 13.75C22.04 13.75 22.65 13.16 23.02 12.57L23.18 12.57L23.18 14.62C23.18 14.90 23.04 15.04 22.79 15.04L18.31 15.04L18.31 16.58L23.58 16.58C24.36 16.58 24.95 16.02 24.95 15.23L24.95 6.83ZM21.28 12.18C20.22 12.18 19.38 11.48 19.38 10.19C19.38 8.90 20.22 8.20 21.28 8.20C22.37 8.20 23.18 8.93 23.18 10.19C23.18 11.45 22.37 12.18 21.28 12.18ZM26.29 8.43L27.72 9.35C28.15 8.62 28.73 8.15 29.65 8.15C30.60 8.15 31.11 8.67 31.11 9.32L31.11 9.49L28.32 9.80C27.03 9.94 26.15 10.70 26.15 11.80C26.15 13.13 27.19 13.97 28.76 13.97C30.25 13.97 30.77 13.24 30.94 12.94L31.14 12.94L31.14 13.78L32.87 13.78L32.87 9.34C32.87 7.71 31.64 6.64 29.75 6.64C28.06 6.64 27.12 7.39 26.29 8.43ZM28 11.70C28 11.30 28.32 11.06 28.98 10.98L31.11 10.72L31.11 10.84C31.11 11.79 30.42 12.52 29.19 12.52C28.41 12.52 28 12.18 28 11.70ZM34.50 3.98L34.50 13.78L36.34 13.78L36.34 9.73L40.04 9.73L40.04 13.78L41.89 13.78L41.89 3.98L40.04 3.98L40.04 7.99L36.34 7.99L36.34 3.98ZM43.18 10.30C43.18 12.49 44.77 13.97 46.82 13.97C48.86 13.97 50.46 12.49 50.46 10.30C50.46 8.12 48.86 6.64 46.82 6.64C44.77 6.64 43.18 8.12 43.18 10.30ZM44.94 10.30C44.94 9.07 45.70 8.26 46.82 8.26C47.94 8.26 48.69 9.07 48.69 10.30C48.69 11.54 47.94 12.35 46.82 12.35C45.70 12.35 44.94 11.54 44.94 10.30ZM51.46 8.79C51.46 10.08 52.35 10.68 54.29 10.95L54.50 10.98C55.26 11.07 55.97 11.13 55.97 11.65C55.97 12.19 55.31 12.49 54.63 12.49C53.73 12.49 52.81 12.04 52.37 11.13L50.96 12.01C51.60 12.99 52.67 13.97 54.59 13.97C56.43 13.97 57.71 12.98 57.71 11.62C57.71 10.35 56.88 9.79 54.66 9.49L54.45 9.46C53.72 9.37 53.20 9.28 53.20 8.78C53.20 8.36 53.56 8.09 54.19 8.09C55.12 8.09 55.82 8.62 56.35 9.25L57.62 8.25C56.69 7.27 55.68 6.64 54.25 6.64C52.64 6.64 51.46 7.50 51.46 8.79ZM58.16 6.83L58.16 8.37L59.92 8.37L59.92 12.43C59.92 13.22 60.51 13.78 61.29 13.78L63.20 13.78L63.20 12.24L62.08 12.24C61.82 12.24 61.68 12.10 61.68 11.82L61.68 8.37L63.59 8.37L63.59 6.83L61.68 6.83L61.68 4.68L59.92 4.68L59.92 6.83ZM68.32 7.76L68.32 10.00C68.32 12.60 69.97 13.97 72.38 13.97C74.97 13.97 76.24 12.59 76.24 10.42L76.24 10.08L74.40 10.08L74.40 10.42C74.40 11.52 73.85 12.29 72.38 12.29C70.94 12.29 70.17 11.40 70.17 10.05L70.17 7.70C70.17 6.47 70.99 5.46 72.38 5.46C73.72 5.46 74.40 6.22 74.40 7.34L74.40 7.67L76.24 7.67L76.24 7.34C76.24 5.15 74.86 3.78 72.38 3.78C69.90 3.78 68.32 5.32 68.32 7.76ZM79.30 3.98L77.53 3.98L77.53 13.78L79.30 13.78ZM80.56 10.30C80.56 12.49 82.15 13.97 84.20 13.97C86.24 13.97 87.84 12.49 87.84 10.30C87.84 8.12 86.24 6.64 84.20 6.64C82.15 6.64 80.56 8.12 80.56 10.30ZM82.32 10.30C82.32 9.07 83.08 8.26 84.20 8.26C85.32 8.26 86.07 9.07 86.07 10.30C86.07 11.54 85.32 12.35 84.20 12.35C83.08 12.35 82.32 11.54 82.32 10.30ZM95.84 13.78L95.84 6.83L94.08 6.83L94.08 10.42C94.08 11.65 93.48 12.35 92.34 12.35C91.34 12.35 90.78 11.77 90.78 10.81L90.78 6.83L89.01 6.83L89.01 10.98C89.01 12.78 90.17 13.89 91.71 13.89C92.99 13.89 93.63 13.30 93.91 12.66L94.11 12.66L94.11 13.78ZM104.44 3.98L102.68 3.98L102.68 7.81L102.51 7.81C102.14 7.22 101.53 6.64 100.30 6.64C98.56 6.64 97.10 8.18 97.10 10.30C97.10 12.43 98.56 13.97 100.30 13.97C101.53 13.97 102.14 13.38 102.51 12.80L102.70 12.80L102.70 13.78L104.44 13.78ZM100.77 8.20C101.86 8.20 102.68 8.99 102.68 10.30C102.68 11.62 101.86 12.40 100.77 12.40C99.71 12.40 98.87 11.65 98.87 10.30C98.87 8.96 99.71 8.20 100.77 8.20Z"></path></g><!----><!----></svg>